<svg xmlns="http://www.w3.org/2000/svg" xmlns:xlink="http://www.w3.org/1999/xlink" width="500" zoomAndPan="magnify" viewBox="0 0 375 374.999991" height="500" preserveAspectRatio="xMidYMid meet" version="1.0"><defs><g/><clipPath id="7f9a63b0ed"><path d="M 113.746094 105.253906 L 265.992188 105.253906 L 265.992188 258.253906 L 113.746094 258.253906 Z M 113.746094 105.253906 " clip-rule="nonzero"/></clipPath><clipPath id="ea63db6454"><path d="M 82.011719 152.988281 L 234.304688 152.988281 L 234.304688 292.246094 L 82.011719 292.246094 Z M 82.011719 152.988281 " clip-rule="nonzero"/></clipPath><clipPath id="8fe5d02566"><path d="M 0.0117188 0.988281 L 152.304688 0.988281 L 152.304688 140.246094 L 0.0117188 140.246094 Z M 0.0117188 0.988281 " clip-rule="nonzero"/></clipPath><clipPath id="e98ac9d326"><rect x="0" width="153" y="0" height="141"/></clipPath></defs><g clip-path="url(#7f9a63b0ed)"><path stroke-linecap="butt" transform="matrix(0.75, 0, 0, 0.75, 113.745664, 105.252437)" fill="none" stroke-linejoin="miter" d="M 0.000572692 0.00195888 L 203.026628 0.00195888 L 203.026628 204.267597 L 0.000572692 204.267597 Z M 0.000572692 0.00195888 " stroke="#38b6ff" stroke-width="12" stroke-opacity="1" stroke-miterlimit="4"/></g><g clip-path="url(#ea63db6454)"><g transform="matrix(1, 0, 0, 1, 82, 152)"><g clip-path="url(#e98ac9d326)"><g clip-path="url(#8fe5d02566)"><path fill="#ffffff" d="M 0.0117188 0.988281 L 152.328125 0.988281 L 152.328125 140.246094 L 0.0117188 140.246094 Z M 0.0117188 0.988281 " fill-opacity="1" fill-rule="nonzero"/></g></g></g></g><g fill="#38b6ff" fill-opacity="1"><g transform="translate(104.687186, 197.537053)"><g><path d="M 19.265625 -26.203125 L 19.265625 -22.171875 L 12.484375 -22.171875 L 12.484375 0 L 8.3125 0 L 8.3125 -22.171875 L 1.734375 -22.171875 L 1.734375 -26.203125 Z M 19.265625 -26.203125 "/></g></g></g><g fill="#38b6ff" fill-opacity="1"><g transform="translate(124.631227, 197.537053)"><g><path d="M 1.984375 -13.0625 C 1.984375 -15.46875 2.582031 -17.695312 3.78125 -19.75 C 4.976562 -21.800781 6.601562 -23.4375 8.65625 -24.65625 C 10.707031 -25.882812 12.945312 -26.5 15.375 -26.5 C 17.769531 -26.5 19.992188 -25.882812 22.046875 -24.65625 C 24.097656 -23.4375 25.734375 -21.789062 26.953125 -19.71875 C 28.179688 -17.65625 28.796875 -15.4375 28.796875 -13.0625 C 28.796875 -10.644531 28.1875 -8.414062 26.96875 -6.375 C 25.757812 -4.332031 24.125 -2.710938 22.0625 -1.515625 C 20 -0.316406 17.769531 0.28125 15.375 0.28125 C 12.945312 0.28125 10.707031 -0.3125 8.65625 -1.5 C 6.601562 -2.6875 4.976562 -4.296875 3.78125 -6.328125 C 2.582031 -8.367188 1.984375 -10.613281 1.984375 -13.0625 Z M 6.296875 -13.0625 C 6.296875 -11.363281 6.703125 -9.804688 7.515625 -8.390625 C 8.335938 -6.972656 9.445312 -5.84375 10.84375 -5 C 12.25 -4.164062 13.796875 -3.75 15.484375 -3.75 C 17.140625 -3.75 18.648438 -4.160156 20.015625 -4.984375 C 21.378906 -5.816406 22.460938 -6.945312 23.265625 -8.375 C 24.078125 -9.800781 24.484375 -11.363281 24.484375 -13.0625 C 24.484375 -14.769531 24.070312 -16.34375 23.25 -17.78125 C 22.4375 -19.21875 21.332031 -20.359375 19.9375 -21.203125 C 18.550781 -22.046875 17.03125 -22.46875 15.375 -22.46875 C 13.695312 -22.46875 12.164062 -22.046875 10.78125 -21.203125 C 9.40625 -20.359375 8.3125 -19.21875 7.5 -17.78125 C 6.695312 -16.34375 6.296875 -14.769531 6.296875 -13.0625 Z M 6.296875 -13.0625 "/></g></g></g><g fill="#38b6ff" fill-opacity="1"><g transform="translate(154.36729, 197.537053)"><g><path d="M 3.59375 -26.203125 L 11.046875 -26.203125 C 14.335938 -26.203125 17.054688 -25.550781 19.203125 -24.25 C 21.347656 -22.957031 22.910156 -21.289062 23.890625 -19.25 C 24.878906 -17.21875 25.375 -15.050781 25.375 -12.75 C 25.375 -10.195312 24.78125 -7.953125 23.59375 -6.015625 C 22.40625 -4.085938 20.816406 -2.601562 18.828125 -1.5625 C 16.835938 -0.519531 14.664062 0 12.3125 0 L 3.59375 0 Z M 11.5625 -4.03125 C 13.425781 -4.03125 15.070312 -4.378906 16.5 -5.078125 C 17.925781 -5.773438 19.039062 -6.800781 19.84375 -8.15625 C 20.65625 -9.507812 21.0625 -11.132812 21.0625 -13.03125 C 21.0625 -15.09375 20.625 -16.8125 19.75 -18.1875 C 18.875 -19.570312 17.753906 -20.585938 16.390625 -21.234375 C 15.035156 -21.890625 13.640625 -22.21875 12.203125 -22.21875 L 7.8125 -22.21875 L 7.8125 -4.03125 Z M 11.5625 -4.03125 "/></g></g></g><g fill="#38b6ff" fill-opacity="1"><g transform="translate(180.719347, 197.537053)"><g><path d="M 1.984375 -13.0625 C 1.984375 -15.46875 2.582031 -17.695312 3.78125 -19.75 C 4.976562 -21.800781 6.601562 -23.4375 8.65625 -24.65625 C 10.707031 -25.882812 12.945312 -26.5 15.375 -26.5 C 17.769531 -26.5 19.992188 -25.882812 22.046875 -24.65625 C 24.097656 -23.4375 25.734375 -21.789062 26.953125 -19.71875 C 28.179688 -17.65625 28.796875 -15.4375 28.796875 -13.0625 C 28.796875 -10.644531 28.1875 -8.414062 26.96875 -6.375 C 25.757812 -4.332031 24.125 -2.710938 22.0625 -1.515625 C 20 -0.316406 17.769531 0.28125 15.375 0.28125 C 12.945312 0.28125 10.707031 -0.3125 8.65625 -1.5 C 6.601562 -2.6875 4.976562 -4.296875 3.78125 -6.328125 C 2.582031 -8.367188 1.984375 -10.613281 1.984375 -13.0625 Z M 6.296875 -13.0625 C 6.296875 -11.363281 6.703125 -9.804688 7.515625 -8.390625 C 8.335938 -6.972656 9.445312 -5.84375 10.84375 -5 C 12.25 -4.164062 13.796875 -3.75 15.484375 -3.75 C 17.140625 -3.75 18.648438 -4.160156 20.015625 -4.984375 C 21.378906 -5.816406 22.460938 -6.945312 23.265625 -8.375 C 24.078125 -9.800781 24.484375 -11.363281 24.484375 -13.0625 C 24.484375 -14.769531 24.070312 -16.34375 23.25 -17.78125 C 22.4375 -19.21875 21.332031 -20.359375 19.9375 -21.203125 C 18.550781 -22.046875 17.03125 -22.46875 15.375 -22.46875 C 13.695312 -22.46875 12.164062 -22.046875 10.78125 -21.203125 C 9.40625 -20.359375 8.3125 -19.21875 7.5 -17.78125 C 6.695312 -16.34375 6.296875 -14.769531 6.296875 -13.0625 Z M 6.296875 -13.0625 "/></g></g></g><g fill="#38b6ff" fill-opacity="1"><g transform="translate(104.687186, 236.898911)"><g><path d="M 17.0625 -6.15625 L 7.53125 -6.15625 L 5 0 L 0.859375 0 L 12.453125 -27.28125 L 12.703125 -27.28125 L 24.296875 0 L 19.46875 0 Z M 15.65625 -9.75 L 12.390625 -18.03125 L 9 -9.75 Z M 15.65625 -9.75 "/></g></g></g><g fill="#38b6ff" fill-opacity="1"><g transform="translate(131.507227, 236.898911)"><g><path d="M 11.015625 -26.203125 C 13.992188 -26.203125 16.320312 -25.457031 18 -23.96875 C 19.675781 -22.488281 20.515625 -20.425781 20.515625 -17.78125 C 20.515625 -16.269531 20.210938 -14.859375 19.609375 -13.546875 C 19.015625 -12.242188 18.050781 -11.175781 16.71875 -10.34375 C 15.382812 -9.519531 13.675781 -9.109375 11.59375 -9.109375 L 7.8125 -9.109375 L 7.8125 0 L 3.59375 0 L 3.59375 -26.203125 Z M 11.59375 -13.140625 C 12.738281 -13.140625 13.664062 -13.382812 14.375 -13.875 C 15.082031 -14.363281 15.585938 -14.960938 15.890625 -15.671875 C 16.191406 -16.378906 16.34375 -17.0625 16.34375 -17.71875 C 16.34375 -18.820312 15.988281 -19.835938 15.28125 -20.765625 C 14.570312 -21.703125 13.378906 -22.171875 11.703125 -22.171875 L 7.8125 -22.171875 L 7.8125 -13.140625 Z M 11.59375 -13.140625 "/></g></g></g><g fill="#38b6ff" fill-opacity="1"><g transform="translate(155.159268, 236.898911)"><g><path d="M 11.015625 -26.203125 C 13.992188 -26.203125 16.320312 -25.457031 18 -23.96875 C 19.675781 -22.488281 20.515625 -20.425781 20.515625 -17.78125 C 20.515625 -16.269531 20.210938 -14.859375 19.609375 -13.546875 C 19.015625 -12.242188 18.050781 -11.175781 16.71875 -10.34375 C 15.382812 -9.519531 13.675781 -9.109375 11.59375 -9.109375 L 7.8125 -9.109375 L 7.8125 0 L 3.59375 0 L 3.59375 -26.203125 Z M 11.59375 -13.140625 C 12.738281 -13.140625 13.664062 -13.382812 14.375 -13.875 C 15.082031 -14.363281 15.585938 -14.960938 15.890625 -15.671875 C 16.191406 -16.378906 16.34375 -17.0625 16.34375 -17.71875 C 16.34375 -18.820312 15.988281 -19.835938 15.28125 -20.765625 C 14.570312 -21.703125 13.378906 -22.171875 11.703125 -22.171875 L 7.8125 -22.171875 L 7.8125 -13.140625 Z M 11.59375 -13.140625 "/></g></g></g></svg>